<svg width="18" height="17" viewBox="0 0 18 17" fill="none" xmlns="http://www.w3.org/2000/svg">
    <path d="M14.8483 5.94513L17.5671 8.42988C17.8956 8.73438 17.8018 8.96913 17.3563 8.96913H15.3171V15.4611C15.3171 15.9066 14.9421 16.3049 14.4966 16.3049H10.9573V11.7576C10.9573 11.3121 10.5591 10.9139 10.1136 10.9139H7.88684C7.44134 10.9139 7.04309 11.3121 7.04309 11.7576V16.3049H3.50384C3.05834 16.3049 2.66009 15.9066 2.66009 15.4611V8.96913H0.644094C0.198594 8.96913 0.104844 8.73438 0.433344 8.42988L8.37884 1.21113C8.70734 0.90663 9.26984 0.90663 9.62084 1.21113L11.4253 2.82813V1.53888C11.4253 1.09338 11.8236 0.695129 12.2691 0.695129H14.0271C14.4726 0.695129 14.8476 1.09338 14.8476 1.53888L14.8483 5.94513Z" fill="#00BAB3"/>
</svg>
